<mxfile host="app.diagrams.net" modified="2021-02-05T07:16:40.591Z" agent="5.0 (Macintosh; Intel Mac OS X 10_15_7) AppleWebKit/537.36 (KHTML, like Gecko) Chrome/88.0.4324.96 Safari/537.36" etag="3l3ZPzIOnCKVUgN-gFVE" version="14.2.7" type="github">
  <diagram name="Page-1" id="e7e014a7-5840-1c2e-5031-d8a46d1fe8dd">
    <mxGraphModel dx="946" dy="623" grid="1" gridSize="10" guides="1" tooltips="1" connect="1" arrows="1" fold="1" page="1" pageScale="1" pageWidth="1169" pageHeight="826" background="#ffffff" math="0" shadow="0">
      <root>
        <mxCell id="0" />
        <mxCell id="1" parent="0" />
        <mxCell id="DOhoKdXm6vQIHS9JJpBJ-41" value="Actor" style="shape=umlActor;verticalLabelPosition=bottom;verticalAlign=top;html=1;" vertex="1" parent="1">
          <mxGeometry x="160" y="210" width="30" height="60" as="geometry" />
        </mxCell>
        <mxCell id="DOhoKdXm6vQIHS9JJpBJ-43" value="资源提交注册" style="html=1;verticalAlign=bottom;endArrow=block;" edge="1" target="DOhoKdXm6vQIHS9JJpBJ-56" parent="1">
          <mxGeometry relative="1" as="geometry">
            <mxPoint x="200" y="243" as="sourcePoint" />
            <mxPoint x="334.5" y="243" as="targetPoint" />
          </mxGeometry>
        </mxCell>
        <mxCell id="DOhoKdXm6vQIHS9JJpBJ-47" value="2.价格协商保存上链" style="text;html=1;align=center;verticalAlign=middle;resizable=0;points=[];autosize=1;" vertex="1" parent="1">
          <mxGeometry x="361" y="283.24" width="120" height="20" as="geometry" />
        </mxCell>
        <mxCell id="DOhoKdXm6vQIHS9JJpBJ-48" value="3.数据持久划到ETCD" style="text;html=1;align=center;verticalAlign=middle;resizable=0;points=[];autosize=1;" vertex="1" parent="1">
          <mxGeometry x="360" y="310" width="130" height="20" as="geometry" />
        </mxCell>
        <mxCell id="DOhoKdXm6vQIHS9JJpBJ-52" value="&lt;meta charset=&quot;utf-8&quot;&gt;&lt;span style=&quot;color: rgb(0, 0, 0); font-family: helvetica; font-size: 12px; font-style: normal; font-weight: 400; letter-spacing: normal; text-align: center; text-indent: 0px; text-transform: none; word-spacing: 0px; background-color: rgb(248, 249, 250); display: inline; float: none;&quot;&gt;1.验证资源准确性&lt;/span&gt;" style="text;whiteSpace=wrap;html=1;" vertex="1" parent="1">
          <mxGeometry x="366.5" y="253.24" width="120" height="30" as="geometry" />
        </mxCell>
        <mxCell id="DOhoKdXm6vQIHS9JJpBJ-56" value="&lt;span style=&quot;background-color: rgb(255 , 255 , 255)&quot;&gt;资源计入管理&lt;/span&gt;" style="shape=umlLifeline;perimeter=lifelinePerimeter;whiteSpace=wrap;html=1;container=1;collapsible=0;recursiveResize=0;outlineConnect=0;dashed=1;labelBackgroundColor=#67AB9F;strokeColor=#000000;" vertex="1" parent="1">
          <mxGeometry x="310" y="168" width="100" height="300" as="geometry" />
        </mxCell>
        <mxCell id="DOhoKdXm6vQIHS9JJpBJ-61" value="&lt;span style=&quot;background-color: rgb(255 , 255 , 255)&quot;&gt;资源调度器&lt;/span&gt;" style="shape=umlLifeline;perimeter=lifelinePerimeter;whiteSpace=wrap;html=1;container=1;collapsible=0;recursiveResize=0;outlineConnect=0;dashed=1;labelBackgroundColor=#67AB9F;strokeColor=#000000;" vertex="1" parent="1">
          <mxGeometry x="520" y="168" width="100" height="300" as="geometry" />
        </mxCell>
        <mxCell id="DOhoKdXm6vQIHS9JJpBJ-62" value="get 资源描述信息" style="html=1;verticalAlign=bottom;endArrow=block;" edge="1" parent="1" source="DOhoKdXm6vQIHS9JJpBJ-56">
          <mxGeometry relative="1" as="geometry">
            <mxPoint x="370" y="360" as="sourcePoint" />
            <mxPoint x="569.5" y="360" as="targetPoint" />
          </mxGeometry>
        </mxCell>
        <mxCell id="DOhoKdXm6vQIHS9JJpBJ-65" value="&lt;span style=&quot;background-color: rgb(255 , 255 , 255)&quot;&gt;资源管理&lt;/span&gt;" style="shape=umlLifeline;perimeter=lifelinePerimeter;whiteSpace=wrap;html=1;container=1;collapsible=0;recursiveResize=0;outlineConnect=0;dashed=1;labelBackgroundColor=#67AB9F;strokeColor=#000000;" vertex="1" parent="1">
          <mxGeometry x="740" y="168" width="100" height="300" as="geometry" />
        </mxCell>
        <mxCell id="DOhoKdXm6vQIHS9JJpBJ-66" value="get 资源调度结果" style="html=1;verticalAlign=bottom;endArrow=block;" edge="1" parent="1">
          <mxGeometry relative="1" as="geometry">
            <mxPoint x="570" y="413" as="sourcePoint" />
            <mxPoint x="780" y="413" as="targetPoint" />
          </mxGeometry>
        </mxCell>
        <mxCell id="DOhoKdXm6vQIHS9JJpBJ-67" value="执行资源调度算法" style="text;html=1;align=center;verticalAlign=middle;resizable=0;points=[];autosize=1;" vertex="1" parent="1">
          <mxGeometry x="565" y="370" width="110" height="20" as="geometry" />
        </mxCell>
        <mxCell id="DOhoKdXm6vQIHS9JJpBJ-68" value="远程部署节点依赖/远程接入集群" style="text;html=1;align=center;verticalAlign=middle;resizable=0;points=[];autosize=1;" vertex="1" parent="1">
          <mxGeometry x="800" y="421.24" width="190" height="20" as="geometry" />
        </mxCell>
      </root>
    </mxGraphModel>
  </diagram>
</mxfile>
